<svg xmlns="http://www.w3.org/2000/svg" viewBox="0 0 1.1 2.36"><defs><style>.cls-1{fill:#f4ecff;}</style></defs><title>Asset 3</title><g id="Layer_2" data-name="Layer 2"><g id="Layer_1-2" data-name="Layer 1"><path class="cls-1" d="M.55,2.36a0,0,0,0,1-.05,0V.05A0,0,0,0,1,.55,0,0,0,0,0,1,.6.05V2.31A0,0,0,0,1,.55,2.36Z"/><path class="cls-1" d="M.55,2.36h0L0,1.84a.06.06,0,0,1,0-.06,0,0,0,0,1,.07,0l.5.5a0,0,0,0,1,0,.07Z"/><path class="cls-1" d="M.55,2.36h0a0,0,0,0,1,0-.07l.5-.5s.05,0,.06,0,0,.05,0,.06l-.5.51Z"/></g></g></svg>