<svg width="613" height="52" viewBox="0 0 613 52" fill="none" xmlns="http://www.w3.org/2000/svg">
<path d="M14.1876 41.72C10.9876 41.72 8.32758 41.12 6.20758 39.92C4.08758 38.72 2.30758 36.86 0.867578 34.34L7.82758 29.12C8.50758 30.4 9.28758 31.34 10.1676 31.94C11.0476 32.54 11.9076 32.84 12.7476 32.84C13.4276 32.84 14.0276 32.76 14.5476 32.6C15.1076 32.4 15.5676 32.06 15.9276 31.58C16.2876 31.1 16.5676 30.46 16.7676 29.66C16.9676 28.86 17.0676 27.84 17.0676 26.6V2H27.3876V27.44C27.3876 29.4 27.1076 31.24 26.5476 32.96C26.0276 34.68 25.2276 36.2 24.1476 37.52C23.0676 38.8 21.6876 39.82 20.0076 40.58C18.3676 41.34 16.4276 41.72 14.1876 41.72ZM45.8395 22.04L45.1795 24.74H52.3795L51.7195 22.04C51.2395 20.16 50.7595 18.12 50.2795 15.92C49.7995 13.72 49.3195 11.64 48.8395 9.68H48.5995C48.1595 11.68 47.6995 13.78 47.2195 15.98C46.7795 18.14 46.3195 20.16 45.8395 22.04ZM30.8395 41L42.7195 2H55.1995L67.0795 41H56.1595L54.2395 32.72H43.3195L41.3995 41H30.8395ZM70.7985 41V2H95.9985V10.64H81.1185V16.76H93.8385V25.4H81.1185V32.36H96.5985V41H70.7985ZM104.138 41V2H118.898C120.978 2 122.958 2.2 124.838 2.6C126.758 3 128.418 3.68 129.818 4.64C131.258 5.6 132.398 6.9 133.238 8.54C134.078 10.14 134.498 12.16 134.498 14.6C134.498 17.4 133.918 19.72 132.758 21.56C131.638 23.4 130.118 24.84 128.198 25.88L136.658 41H125.138L118.418 27.92H114.458V41H104.138ZM114.458 19.76H118.178C122.338 19.76 124.418 18.04 124.418 14.6C124.418 12.92 123.878 11.76 122.798 11.12C121.758 10.48 120.218 10.16 118.178 10.16H114.458V19.76ZM141.931 41V2H152.251V41H141.931ZM166.196 41.72C164.436 41.72 162.996 41.12 161.876 39.92C160.756 38.72 160.196 37.24 160.196 35.48C160.196 33.72 160.756 32.24 161.876 31.04C162.996 29.84 164.436 29.24 166.196 29.24C167.956 29.24 169.396 29.84 170.516 31.04C171.636 32.24 172.196 33.72 172.196 35.48C172.196 37.24 171.636 38.72 170.516 39.92C169.396 41.12 167.956 41.72 166.196 41.72ZM180.134 41V2H194.414C196.534 2 198.554 2.22 200.474 2.66C202.394 3.06 204.074 3.78 205.514 4.82C206.954 5.82 208.094 7.16 208.934 8.84C209.814 10.48 210.254 12.52 210.254 14.96C210.254 17.36 209.814 19.42 208.934 21.14C208.094 22.86 206.954 24.28 205.514 25.4C204.074 26.48 202.414 27.3 200.534 27.86C198.654 28.38 196.694 28.64 194.654 28.64H190.454V41H180.134ZM190.454 20.48H194.174C196.214 20.48 197.714 20 198.674 19.04C199.674 18.08 200.174 16.72 200.174 14.96C200.174 13.2 199.634 11.96 198.554 11.24C197.474 10.52 195.934 10.16 193.934 10.16H190.454V20.48ZM216.638 41V2H226.958V16.52H227.198L237.038 2H248.318L236.678 17.84L250.598 41H239.318L230.678 26L226.958 31.28V41H216.638ZM276.274 51.68C273.234 51.68 270.294 51.22 267.454 50.3C264.654 49.38 262.174 47.98 260.014 46.1C257.854 44.22 256.114 41.84 254.794 38.96C253.514 36.04 252.874 32.6 252.874 28.64C252.874 24.4 253.614 20.54 255.094 17.06C256.574 13.54 258.574 10.56 261.094 8.12C263.614 5.64 266.554 3.72 269.914 2.36C273.314 0.999998 276.914 0.319998 280.714 0.319998C284.034 0.319998 287.034 0.859998 289.714 1.94C292.434 3.02 294.734 4.54 296.614 6.5C298.534 8.42 299.994 10.74 300.994 13.46C302.034 16.14 302.554 19.08 302.554 22.28C302.554 25.08 302.114 27.52 301.234 29.6C300.394 31.68 299.274 33.42 297.874 34.82C296.514 36.18 294.974 37.22 293.254 37.94C291.574 38.62 289.914 38.96 288.274 38.96C286.474 38.96 284.914 38.56 283.594 37.76C282.274 36.96 281.434 35.84 281.074 34.4H280.954C280.554 35 280.074 35.54 279.514 36.02C278.954 36.5 278.334 36.92 277.654 37.28C277.014 37.64 276.354 37.92 275.674 38.12C274.994 38.28 274.354 38.36 273.754 38.36C271.274 38.36 269.294 37.52 267.814 35.84C266.334 34.12 265.594 31.88 265.594 29.12C265.594 27.2 265.914 25.34 266.554 23.54C267.194 21.74 268.074 20.14 269.194 18.74C270.314 17.34 271.614 16.22 273.094 15.38C274.614 14.54 276.234 14.12 277.954 14.12C278.914 14.12 279.774 14.36 280.534 14.84C281.294 15.28 281.914 16.04 282.394 17.12H282.514L283.474 14.6H289.714L286.834 28.28C286.114 31.24 286.954 32.72 289.354 32.72C290.234 32.72 291.094 32.48 291.934 32C292.774 31.52 293.494 30.84 294.094 29.96C294.734 29.04 295.234 27.96 295.594 26.72C295.994 25.44 296.194 24.04 296.194 22.52C296.194 20.48 295.914 18.5 295.354 16.58C294.794 14.66 293.874 12.96 292.594 11.48C291.314 9.96 289.634 8.74 287.554 7.82C285.474 6.9 282.914 6.44 279.874 6.44C277.354 6.44 274.874 6.96 272.434 8C270.034 9.04 267.894 10.52 266.014 12.44C264.134 14.36 262.614 16.68 261.454 19.4C260.294 22.08 259.714 25.08 259.714 28.4C259.714 31.36 260.194 33.92 261.154 36.08C262.114 38.24 263.394 40.02 264.994 41.42C266.634 42.82 268.494 43.86 270.574 44.54C272.694 45.22 274.874 45.56 277.114 45.56C278.554 45.56 280.094 45.34 281.734 44.9C283.374 44.5 284.794 44 285.994 43.4L288.154 48.92C286.274 49.88 284.354 50.58 282.394 51.02C280.474 51.46 278.434 51.68 276.274 51.68ZM276.034 32C276.594 32 277.114 31.84 277.594 31.52C278.114 31.16 278.714 30.52 279.394 29.6L280.714 22.04C280.514 21.6 280.194 21.26 279.754 21.02C279.354 20.74 278.874 20.6 278.314 20.6C277.514 20.6 276.794 20.86 276.154 21.38C275.554 21.9 275.034 22.56 274.594 23.36C274.194 24.12 273.874 24.98 273.634 25.94C273.394 26.86 273.274 27.72 273.274 28.52C273.274 30.84 274.194 32 276.034 32ZM327.744 41.72C325.024 41.72 322.464 41.32 320.064 40.52C317.664 39.68 315.564 38.44 313.764 36.8C312.004 35.12 310.604 33.04 309.564 30.56C308.564 28.04 308.064 25.12 308.064 21.8C308.064 18.52 308.584 15.62 309.624 13.1C310.664 10.54 312.064 8.4 313.824 6.68C315.624 4.92 317.704 3.58 320.064 2.66C322.424 1.74 324.904 1.28 327.504 1.28C330.384 1.28 332.864 1.8 334.944 2.84C337.064 3.84 338.824 5.04 340.224 6.44L334.824 13.04C333.864 12.2 332.844 11.52 331.764 11C330.724 10.44 329.424 10.16 327.864 10.16C326.544 10.16 325.324 10.42 324.204 10.94C323.084 11.46 322.104 12.2 321.264 13.16C320.424 14.12 319.764 15.3 319.284 16.7C318.844 18.1 318.624 19.68 318.624 21.44C318.624 25.12 319.444 27.94 321.084 29.9C322.724 31.86 325.304 32.84 328.824 32.84C329.384 32.84 329.924 32.78 330.444 32.66C331.004 32.54 331.464 32.36 331.824 32.12V26.72H326.064V18.32H340.944V36.92C339.544 38.24 337.684 39.38 335.364 40.34C333.044 41.26 330.504 41.72 327.744 41.72ZM348.533 41V2H359.573L365.453 17.96C365.813 19.04 366.153 20.16 366.473 21.32C366.793 22.48 367.133 23.64 367.493 24.8H367.733C368.093 23.64 368.433 22.48 368.753 21.32C369.073 20.16 369.413 19.04 369.773 17.96L375.413 2H386.453V41H377.093V29.48C377.093 28.48 377.133 27.38 377.213 26.18C377.333 24.98 377.453 23.76 377.573 22.52C377.693 21.24 377.833 20 377.993 18.8C378.153 17.6 378.293 16.52 378.413 15.56H378.173L374.933 24.92L370.133 37.82H364.613L359.813 24.92L356.693 15.56H356.453C356.573 16.52 356.713 17.6 356.873 18.8C357.033 20 357.173 21.24 357.293 22.52C357.413 23.76 357.513 24.98 357.593 26.18C357.713 27.38 357.773 28.48 357.773 29.48V41H348.533ZM405.195 22.04L404.535 24.74H411.735L411.075 22.04C410.595 20.16 410.115 18.12 409.635 15.92C409.155 13.72 408.675 11.64 408.195 9.68H407.955C407.515 11.68 407.055 13.78 406.575 15.98C406.135 18.14 405.675 20.16 405.195 22.04ZM390.195 41L402.075 2H414.555L426.435 41H415.515L413.595 32.72H402.675L400.755 41H390.195ZM430.154 41V2H440.474V41H430.154ZM449.138 41V2H459.458V32.36H474.218V41H449.138ZM486.235 41.72C484.475 41.72 483.035 41.12 481.915 39.92C480.795 38.72 480.235 37.24 480.235 35.48C480.235 33.72 480.795 32.24 481.915 31.04C483.035 29.84 484.475 29.24 486.235 29.24C487.995 29.24 489.435 29.84 490.555 31.04C491.675 32.24 492.235 33.72 492.235 35.48C492.235 37.24 491.675 38.72 490.555 39.92C489.435 41.12 487.995 41.72 486.235 41.72ZM517.094 41.72C514.614 41.72 512.234 41.32 509.954 40.52C507.714 39.68 505.734 38.44 504.014 36.8C502.334 35.12 500.994 33.04 499.994 30.56C498.994 28.04 498.494 25.12 498.494 21.8C498.494 18.52 499.014 15.62 500.054 13.1C501.094 10.54 502.474 8.4 504.194 6.68C505.954 4.92 507.954 3.58 510.194 2.66C512.474 1.74 514.854 1.28 517.334 1.28C519.934 1.28 522.254 1.8 524.294 2.84C526.334 3.84 528.054 5.04 529.454 6.44L524.054 13.04C523.094 12.2 522.094 11.52 521.054 11C520.054 10.44 518.894 10.16 517.574 10.16C516.414 10.16 515.314 10.42 514.274 10.94C513.274 11.46 512.374 12.2 511.574 13.16C510.814 14.12 510.194 15.3 509.714 16.7C509.274 18.1 509.054 19.68 509.054 21.44C509.054 25.12 509.814 27.94 511.334 29.9C512.894 31.86 514.934 32.84 517.454 32.84C518.974 32.84 520.314 32.52 521.474 31.88C522.674 31.2 523.694 30.4 524.534 29.48L529.934 35.96C528.254 37.88 526.314 39.32 524.114 40.28C521.954 41.24 519.614 41.72 517.094 41.72ZM549.367 41.72C546.647 41.72 544.167 41.26 541.927 40.34C539.727 39.42 537.827 38.1 536.227 36.38C534.667 34.62 533.447 32.48 532.567 29.96C531.687 27.4 531.247 24.52 531.247 21.32C531.247 18.12 531.687 15.28 532.567 12.8C533.447 10.28 534.667 8.18 536.227 6.5C537.827 4.78 539.727 3.48 541.927 2.6C544.167 1.72 546.647 1.28 549.367 1.28C552.047 1.28 554.507 1.72 556.747 2.6C558.987 3.48 560.887 4.78 562.447 6.5C564.047 8.22 565.287 10.32 566.167 12.8C567.047 15.28 567.487 18.12 567.487 21.32C567.487 24.52 567.047 27.4 566.167 29.96C565.287 32.48 564.047 34.62 562.447 36.38C560.887 38.1 558.987 39.42 556.747 40.34C554.507 41.26 552.047 41.72 549.367 41.72ZM549.367 32.84C551.727 32.84 553.567 31.82 554.887 29.78C556.247 27.7 556.927 24.88 556.927 21.32C556.927 17.76 556.247 15.02 554.887 13.1C553.567 11.14 551.727 10.16 549.367 10.16C547.007 10.16 545.147 11.14 543.787 13.1C542.467 15.02 541.807 17.76 541.807 21.32C541.807 24.88 542.467 27.7 543.787 29.78C545.147 31.82 547.007 32.84 549.367 32.84ZM574.47 41V2H585.51L591.39 17.96C591.75 19.04 592.09 20.16 592.41 21.32C592.73 22.48 593.07 23.64 593.43 24.8H593.67C594.03 23.64 594.37 22.48 594.69 21.32C595.01 20.16 595.35 19.04 595.71 17.96L601.35 2H612.39V41H603.03V29.48C603.03 28.48 603.07 27.38 603.15 26.18C603.27 24.98 603.39 23.76 603.51 22.52C603.63 21.24 603.77 20 603.93 18.8C604.09 17.6 604.23 16.52 604.35 15.56H604.11L600.87 24.92L596.07 37.82H590.55L585.75 24.92L582.63 15.56H582.39C582.51 16.52 582.65 17.6 582.81 18.8C582.97 20 583.11 21.24 583.23 22.52C583.35 23.76 583.45 24.98 583.53 26.18C583.65 27.38 583.71 28.48 583.71 29.48V41H574.47Z" fill="url(#paint0_linear)"/>
<defs>
<linearGradient id="paint0_linear" x1="8.5" y1="27.5" x2="622" y2="27.5" gradientUnits="userSpaceOnUse">
<stop stop-color="#16E0BD"/>
<stop offset="1" stop-color="#F4ECFF"/>
</linearGradient>
</defs>
</svg>
