<svg width="354" height="93" viewBox="0 0 354 93" fill="none" xmlns="http://www.w3.org/2000/svg">
<path d="M31.48 92.68C24.0133 92.68 17.8067 91.28 12.86 88.48C7.91333 85.68 3.76 81.34 0.4 75.46L16.64 63.28C18.2267 66.2667 20.0467 68.46 22.1 69.86C24.1533 71.26 26.16 71.96 28.12 71.96C29.7067 71.96 31.1067 71.7733 32.32 71.4C33.6267 70.9333 34.7 70.14 35.54 69.02C36.38 67.9 37.0333 66.4067 37.5 64.54C37.9667 62.6733 38.2 60.2933 38.2 57.4V-5.00679e-06H62.28V59.36C62.28 63.9333 61.6267 68.2267 60.32 72.24C59.1067 76.2533 57.24 79.8 54.72 82.88C52.2 85.8667 48.98 88.2467 45.06 90.02C41.2333 91.7933 36.7067 92.68 31.48 92.68ZM105.334 46.76L103.794 53.06H120.594L119.054 46.76C117.934 42.3733 116.814 37.6133 115.694 32.48C114.574 27.3467 113.454 22.4933 112.334 17.92H111.774C110.748 22.5867 109.674 27.4867 108.554 32.62C107.528 37.66 106.454 42.3733 105.334 46.76ZM70.3344 91L98.0544 -5.00679e-06H127.174L154.894 91H129.414L124.934 71.68H99.4544L94.9744 91H70.3344ZM163.572 91V-5.00679e-06H222.372V20.16H187.652V34.44H217.332V54.6H187.652V70.84H223.772V91H163.572ZM241.365 91V-5.00679e-06H275.805C280.658 -5.00679e-06 285.278 0.466661 289.665 1.39999C294.145 2.33333 298.018 3.91999 301.285 6.16C304.645 8.4 307.305 11.4333 309.265 15.26C311.225 18.9933 312.205 23.7067 312.205 29.4C312.205 35.9333 310.852 41.3467 308.145 45.64C305.532 49.9333 301.985 53.2933 297.505 55.72L317.245 91H290.365L274.685 60.48H265.445V91H241.365ZM265.445 41.44H274.125C283.832 41.44 288.685 37.4267 288.685 29.4C288.685 25.48 287.425 22.7733 284.905 21.28C282.478 19.7867 278.885 19.04 274.125 19.04H265.445V41.44ZM329.549 91V-5.00679e-06H353.629V91H329.549Z" fill="url(#paint0_linear)"/>
<defs>
<linearGradient id="paint0_linear" x1="-5.89464" y1="41.0909" x2="363.693" y2="52.2101" gradientUnits="userSpaceOnUse">
<stop stop-color="#FFDE59"/>
<stop offset="1" stop-color="white"/>
</linearGradient>
</defs>
</svg>
