<svg width="92" height="25" viewBox="0 0 92 25" fill="none" xmlns="http://www.w3.org/2000/svg">
<path d="M8.352 24.432C6.432 24.432 4.836 24.072 3.564 23.352C2.292 22.632 1.224 21.516 0.36 20.004L4.536 16.872C4.944 17.64 5.412 18.204 5.94 18.564C6.468 18.924 6.984 19.104 7.488 19.104C7.896 19.104 8.256 19.056 8.568 18.96C8.904 18.84 9.18 18.636 9.396 18.348C9.612 18.06 9.78 17.676 9.9 17.196C10.02 16.716 10.08 16.104 10.08 15.36V0.599999H16.272V15.864C16.272 17.04 16.104 18.144 15.768 19.176C15.456 20.208 14.976 21.12 14.328 21.912C13.68 22.68 12.852 23.292 11.844 23.748C10.86 24.204 9.696 24.432 8.352 24.432ZM27.3431 12.624L26.9471 14.244H31.2671L30.8711 12.624C30.5831 11.496 30.2951 10.272 30.0071 8.952C29.7191 7.632 29.4311 6.384 29.1431 5.208H28.9991C28.7351 6.408 28.4591 7.668 28.1711 8.988C27.9071 10.284 27.6311 11.496 27.3431 12.624ZM18.3431 24L25.4711 0.599999H32.9591L40.0871 24H33.5351L32.3831 19.032H25.8311L24.6791 24H18.3431ZM42.3186 24V0.599999H57.4386V5.784H48.5106V9.456H56.1426V14.64H48.5106V18.816H57.7986V24H42.3186ZM62.3225 24V0.599999H71.1785C72.4265 0.599999 73.6145 0.719999 74.7425 0.959998C75.8945 1.2 76.8905 1.608 77.7305 2.184C78.5945 2.76 79.2785 3.54 79.7825 4.524C80.2865 5.484 80.5385 6.696 80.5385 8.16C80.5385 9.84 80.1905 11.232 79.4945 12.336C78.8225 13.44 77.9105 14.304 76.7585 14.928L81.8345 24H74.9225L70.8905 16.152H68.5145V24H62.3225ZM68.5145 11.256H70.7465C73.2425 11.256 74.4905 10.224 74.4905 8.16C74.4905 7.152 74.1665 6.456 73.5185 6.072C72.8945 5.688 71.9705 5.496 70.7465 5.496H68.5145V11.256ZM84.9983 24V0.599999H91.1903V24H84.9983Z" fill="url(#paint0_linear)"/>
<defs>
<linearGradient id="paint0_linear" x1="-1.26054" y1="11.0909" x2="94.0013" y2="11.829" gradientUnits="userSpaceOnUse">
<stop stop-color="#16E0BD"/>
<stop offset="1" stop-color="#F4ECFF"/>
</linearGradient>
</defs>
</svg>
